<svg height="666" width="670" xmlns="http://www.w3.org/2000/svg"><path d="m358 0v1h7z" fill="#c8b0a2"/><path d="m365 0 1 1z" fill="#f2f9f7"/><path d="m366 0v1h3z" fill="#c8b0a2"/><path d="m342 1 1 1z" fill="#f2f9f7"/><path d="m651 198c-8.928-2.643-14.591-23.572-17-32h1l12 26c1.096-6.258-4.983-15.446-7.753-21-8.58-17.204-17.981-33.496-29.401-49-50.939-69.1509-131.932-111.3076-216.846-119.83099-122.006-12.24671-255.773 47.90129-328.5216 145.83099-38.5382 51.878-59.99234 113.798-64.3888938 178-2.0141662 29.412 2.1072438 60.618 9.7592638 89 49.98453 185.395 265.21823 301.927 446.15123 229.551 128.253-51.303 208.049-185.54 213.961-320.551 1.944-44.403-9.118-83.455-18.961-126z" fill="#0bb887"/><path d="m385 1 1 1zm-54 1 1 1z" fill="#f2f9f7"/><path d="m332 2 1 1z" fill="#c8b0a2"/><path d="m395 2 1 1z" fill="#f2f9f7"/><path d="m324 3 1 1zm78 0 1 1z" fill="#c8b0a2"/><path d="m316 4 1 1z" fill="#f2f9f7"/><path d="m409 4 1 1zm-99 1 1 1zm-11 2 1 1zm130 1 1 1z" fill="#c8b0a2"/><path d="m284 10 1 1z" fill="#f2f9f7"/><path d="m449 13 1 1zm-185 2 1 1z" fill="#c8b0a2"/><path d="m456 15 1 1zm-199 2 1 1z" fill="#f2f9f7"/><path d="m477 22 1 1z" fill="#c8b0a2"/><path d="m238 23 1 1zm-8 3 1 1z" fill="#f2f9f7"/><path d="m492 28 1 1zm-270 1 1 1z" fill="#c8b0a2"/><path d="m210 34 1 1z" fill="#f2f9f7"/><path d="m208 35 1 1zm-9 4 1 1zm-2 1 1 1zm-2 1 1 1z" fill="#c8b0a2"/><path d="m518 41 1 1z" fill="#f2f9f7"/><path d="m193 42 1 1zm330 2 1 1zm-338 2 1 1z" fill="#c8b0a2"/><path d="m183 47 1 1z" fill="#f2f9f7"/><path d="m528 47 1 1zm-361 9 1 1zm376 1 1 1zm-381 2 1 1z" fill="#c8b0a2"/><path d="m154 64 1 1z" fill="#f2f9f7"/><path d="m151 66 1 1zm404 0 1 1zm-407 2 1 1z" fill="#c8b0a2"/><path d="m138 75 1 1zm429 1 1 1zm-433 2 1 1z" fill="#f2f9f7"/><path d="m130 81 1 1zm-5 4 1 1zm-5 4 1 1z" fill="#c8b0a2"/><path d="m113 95 1 1z" fill="#f2f9f7"/><path d="m594 103 1 1z" fill="#c8b0a2"/><path d="m595 104 1 1zm-493 1 1 1z" fill="#f2f9f7"/><path d="m101 106 1 1z" fill="#c8b0a2"/><path d="m325 109.424c-45.915 6.047-93.069 17.307-125.91 52.576-18.902 20.299-29.995 46.662-37.511 73-16.292 57.09-16.067 122.205 1.396 179 7.676 24.962 18.783 49.875 37.064 69 18.597 19.454 38.966 28.002 63.961 36.333 34.671 11.557 69.508 18.039 106 13.381 15.695-2.003 31.482-6.647 46-12.864 98.53-42.195 122.843-160.981 107.08-256.85-4.856-29.535-12.658-67.512-30.841-92-35.527-47.846-109.873-69.13-167.239-61.576z" fill="#f2f9f7"/><path d="m365 109 1 1z" fill="#c8b0a2"/><path d="m600 110 1 1z" fill="#f2f9f7"/><path d="m381 111 1 1zm-288 3 1 1zm303 0 1 1zm-304 1 1 1zm512 0 1 1zm-513 1 1 1zm192 0 1 1zm-193 1 1 1zm-1 1 1 1zm183 1 1 1zm-15 5 1 1zm-5 2 1 1zm361 1 1 1zm-533 1 1 1zm165 1 1 1zm-170 5 1 1zm160 0 1 1zm-7 4 1 1z" fill="#c8b0a2"/><path d="m67 144 1 1z" fill="#f2f9f7"/><path d="m219 144 1 1zm252 6 1 1zm-261 1 1 1zm419 1 1 1zm-570 3 1 1zm571 3 1 1zm-149 1 1 1zm1 1 1 1zm149 0 1 1z" fill="#c8b0a2"/><path d="m634 161 1 1z" fill="#f2f9f7"/><path d="m632 162 2 3z" fill="#c8b0a2"/><path d="m635 163 1 1z" fill="#f2f9f7"/><path d="m636 165 1 1zm-441 1 1 1zm439 0 1 1z" fill="#c8b0a2"/><path d="m637 167 1 1zm-2.333 1.333.666.334z" fill="#c8b0a2"/><path d="m638 169 1 1z" fill="#f2f9f7"/><path d="m49 170 1 1zm586.667.333.666.334zm1.333 1.667 1 1zm-143 2 1 1zm144 0 1 1zm-592 1 1 1zm591 0 1 1zm2 1 1 1zm-453 2 1 1zm454 0 1 1z" fill="#c8b0a2"/><path d="m43 180 1 1z" fill="#f2f9f7"/><path d="m497 180 1 1zm142 0 1 1zm2 0 1 1zm2 0 1 1zm-307 2v1h7z" fill="#c8b0a2"/><path d="m401 421c-20.061-1.583-41.647-1.27-59-13.221-21.048-14.494-25.349-40.392-29.247-63.779-2.594-15.562-3.941-30.516 9.251-41.786 22.244-19.005 39.653 27.271 39.996 43.786h62c.029-44.694 11.274-98.54-20.439-135.999-38.064-44.96-103.094-28.987-135.083 13.999-18.315 24.612-22.352 51.259-24.388 81-3.161 46.151-3.927 108.431 30.925 143.999 36.562 37.315 114.379 28.081 125.985-27.999z" fill="#ad1e28"/><path d="m348 182v1h6zm150 0 1 1zm142 0 1 1zm2 0 1 1zm-311.333 1.333.666.334zm26.333-.333v1h3zm-31.333 1.333.666.334zm37 0 .666.334zm136.333-.333 1 1zm144 0 1 1zm-321.333 1.333.666.334zm44.333-.333 1 1zm-185 1 1 1zm138 0 1 1zm50 0 1 1zm131 0 1 1zm144 0 1 1zm-328 1 1 1zm55.667.333.666.334zm270.333-.333 1 1zm4 0 1 1zm-333 1 1 1zm61 0 1 1zm127 0 1 1zm144 0 1 1z" fill="#c8b0a2"/><path d="m38 189 1 1z" fill="#f2f9f7"/><path d="m311 189 1 1zm65 0 1 1zm-67 1 1 1zm69 0 1 1zm268 0 1 1zm-609 1 1 1zm270 0 1 1zm73 0 1 1zm122 0 1 1zm-197 1 1 1zm77 0 1 1zm262 0 1 1zm3 0 1 1z" fill="#c8b0a2"/><path d="m648 192 1 1z" fill="#f2f9f7"/><path d="m303 193 1 1zm80 0 1 1zm120 0 1 1z" fill="#c8b0a2"/><path d="m648 193 1 1z" fill="#0bb887"/><path d="m301 194 1 1zm84 0 1 1zm260 0 1 1zm3 0 1 1zm-262 1 1 1zm-88 1 1 1zm90 0 1 1zm1 1 1 1zm-94 1 1 1zm210 0 1 1zm-113 1 1 1zm-100 1 1 1zm101 0 1 1z" fill="#c8b0a2"/><path d="m651 200 1 1z" fill="#f2f9f7"/><path d="m32 201 1 1zm259 0 1 1zm103 0 1 1zm112 0 1 1zm-111 1 1 1zm-364 1 1 1zm257 0 1 1zm219 0 1 1z" fill="#c8b0a2"/><path d="m652 203 1 1z" fill="#f2f9f7"/><path d="m287 204 1 1z" fill="#c8b0a2"/><path d="m30 205 1 1z" fill="#f2f9f7"/><path d="m508 206 1 1zm145 0 1 1z" fill="#c8b0a2"/><path d="m29 207 1 1z" fill="#f2f9f7"/><path d="m282 208 1 1zm-1 1 1 1zm228 0 1 1zm145 0 1 1zm-374 1 1 1zm-111 1 1 1zm110 0 1 1zm125 0 1 1zm-126 1 1 1zm127 0 1 1zm105 0 1 1z" fill="#c8b0a2"/><path d="m655 212 1 1z" fill="#f2f9f7"/><path d="m277 213 1 1zm129 0 1 1zm-130 1 1 1zm-1 1 1 1zm236 0 1 1zm-103 1 1 1zm104 2 1 1zm-102 1 1 1zm247 0 1 1zm-386 1 1 1z" fill="#c8b0a2"/><path d="m23 221 1 1z" fill="#f2f9f7"/><path d="m270 221 1 1zm141 0 1 1zm102 0 1 1zm-101 1 1 1zm1 2 1 1zm101.333.667.334.666zm-350.333.333 1 1zm103 0 1 1z" fill="#c8b0a2"/><path d="m21 226 1 1z" fill="#f2f9f7"/><path d="m414 226 1 1zm-149 2 1 1zm150 0 1 1zm100 0 1 1zm-251 1 1 1zm152.333 1.667.334.666z" fill="#c8b0a2"/><path d="m660 230 1 1z" fill="#f2f9f7"/><path d="m263 231 1 1zm253.333.667.334.666zm-254.333.333 1 1zm155 1 1 1z" fill="#c8b0a2"/><path d="m18 234 1 1z" fill="#f2f9f7"/><path d="m261 234 1 1zm-100 1 1 1zm356.333.667.334.666zm-99.333.333 1 1z" fill="#c8b0a2"/><path d="m17 237 1 1z" fill="#f2f9f7"/><path d="m259 237 1 1zm160.333 1.667.334.666zm-161.333.333 1 1zm260.333.667.334.666zm143.667-.667 1 1zm-646 1 1 1zm241 1 1 1zm163 1 1 1zm-405 1 1 1zm241 0 1 1zm263.333.667.334.666zm-264.333 1.333 1 1zm166.333.667.334.666z" fill="#c8b0a2"/><path d="m14 246 1 1z" fill="#f2f9f7"/><path d="m254 247 1 1zm266.333 1.667.334.666z" fill="#c8b0a2"/><path d="m664 249 1 1z" fill="#f2f9f7"/><path d="m253 250 1 1zm169.333.667.334.666zm-265.333.333 1 1zm95 1 1 1zm-240 1 1 1zm509 0 1 1zm-270 2 1 1zm172 0v3h1zm242 0 1 1zm-509 1 1 1zm94 2 1 1zm272.333.667.334.666zm-512.333 1.333 1 1zm239 1 1 1zm417 0 1 1zm-242 1v3h1zm-415 2 1 1zm239.333.667.334.666zm275 0 .334.666zm-369.333 2.333 1 1zm93.333 2.667.334.666zm419.667-.667 1 1zm-143 1v3h1zm-99 1v8h1z" fill="#c8b0a2"/><path d="m7 272 1 1z" fill="#f2f9f7"/><path d="m246 274v4h1zm279.333 4.667.334.666z" fill="#c8b0a2"/><path d="m668 278 1 1z" fill="#f2f9f7"/><path d="m245 283v6h1z" fill="#c8b0a2"/><path d="m4 287 1 1z" fill="#f2f9f7"/><path d="m526 287v4h1zm143.333 4.667.334.666z" fill="#c8b0a2"/><path d="m3 293 1 1z" fill="#f2f9f7"/><path d="m244 295v7h1zm86 2v1h5zm-3 1 1 1zm10 0 1 1zm2 1 1 1zm-337 1 1 1zm321 0 1 1zm17 0 1 1zm187 0v7h1zm-205 1 1 1zm21 1 1 1zm1 1 1 1zm1 1 1 1zm-27 1 1 1zm28 0 1 1zm-29 1 1 1zm-167 1 1 1zm166 0 1 1zm32 1 1 1zm77 0v13h1zm-424 1 1 1zm348 0 1 1zm-106 1v11h1zm71 0 1 1zm36 1 1 1zm-37 1 1 1zm-1 2 1 1zm40 0 1 1zm1 2 1 1zm-41.667 1.667.334.666zm42.667.333 1 1zm1 2 1 1z" fill="#c8b0a2"/><path d="m0 321 1 1z" fill="#f2f9f7"/><path d="m0 322 1 1zm356 1 1 1zm1 2 1 1zm1 3 1 1zm311.333.667.334.666z" fill="#c8b0a2"/><path d="m669 330 1 1z" fill="#f2f9f7"/><path d="m359.333 331.667.334.666zm167.667-.667v7h1z" fill="#c8b0a2"/><path d="m311 333v4h1zm49.333 2.667.334.666zm-210.333.333 1 1zm274 0v10h1zm-63 3v3h1zm-49 1v3h1z" fill="#c8b0a2"/><path d="m668 343 1 1z" fill="#f2f9f7"/><path d="m313 346v3h1zm49 0v1h62l-20-1zm164 0v5h1zm-283 4v10h1zm-92 2 1 1zm163 0v3h1zm353 0 1 1zm-667 3 1 1z" fill="#c8b0a2"/><path d="m0 356 1 1z" fill="#f2f9f7"/><path d="m525 356v3h1z" fill="#c8b0a2"/><path d="m315 358v3h1z" fill="#c8b0a2"/><path d="m666 360 1 1z" fill="#f2f9f7"/><path d="m152 362 1 1zm164.333 1.667.334.666zm207.667-.667v3h1zm-280 3v5h1z" fill="#c8b0a2"/><path d="m665 367 1 1z" fill="#f2f9f7"/><path d="m1.33333 368.667.33334.666zm315.66667-.667 1 1zm206.333 2.667.334.666zm-205 1 .334.666z" fill="#c8b0a2"/><path d="m664 373 1 1z" fill="#f2f9f7"/><path d="m245 375v4h1zm74 0 1 1zm203.333.667.334.666zm-520.333 1.333 1 1zm318 1 1 1zm1.333 2.667.334.666zm200 0 .334.666zm-366.333 1.333 1 1zm91 1v3h1zm76 0 1 1zm-319 1 1 1zm320 1 1 1zm197 0 1 1zm-196 2 1 1zm337 1 1 1zm-413.667 1.667.334.666zm77.667-.667 1 1zm194 0 1 1zm-515 1 1 1zm322 1 1 1zm1 1 1 1zm-79 1v3h1zm270 0 1 1zm-190 1 1 1zm1 1 1 1zm1 2 1 1zm187 0 1 1z" fill="#c8b0a2"/><path d="m659 397 1 1z" fill="#f2f9f7"/><path d="m249.333 398.667.334.666zm81.667-.667 1 1zm1 1 1 1zm1 1 1 1zm183 0 1 1zm-182 1 1 1zm324 0 1 1zm-407.667 1.667.334.666zm84.667-.667 1 1zm1 1 1 1zm179.333.667.334.666zm-178.333.333 1 1z" fill="#c8b0a2"/><path d="m7 405 1 1z" fill="#f2f9f7"/><path d="m251.333 405.667.334.666zm86.667-.667 1 1z" fill="#c8b0a2"/><path d="m657 405 1 1z" fill="#f2f9f7"/><path d="m514 406 1 1zm-173 1 1 1zm1 1 1 1zm-90 1 1 1zm92 0 1 1zm169 0 1 1zm-167 1 1 1zm2 1 1 1zm-95 1 1 1zm97 0 1 1zm162 0 1 1zm143 0 1 1zm-646 1 1 1zm343 0 1 1zm-97.667 1.667.334.666zm100.667-.667 1 1zm-192 1 1 1zm195 0 1 1zm3.667 1.333.666.334zm-351.667.667 1 1zm245 0 1 1zm110 0v1h3zm6 1v1h3zm7 1v1h6z" fill="#c8b0a2"/><path d="m653 419 1 1z" fill="#f2f9f7"/><path d="m256 420 1 1zm140 0v1h5zm-139 2 1 1zm251 0 1 1zm144 0 1 1zm-251.667 1.667.334.666zm-388.333.333 1 1zm246 0 1 1zm1 2 1 1zm-92 1 1 1zm232.333.667.334.666zm-139.333.333 1 1zm1 2 1 1zm137.333.667.334.666zm-136.333 1.333 1 1zm135 1 1 1zm251 1 1 1zm-384 1 1 1zm132 0 1 1zm-225 2 1 1zm94 0 1 1zm382 0 1 1zm-381 1 1 1zm128 1 1 1zm-126 2 1 1zm125 0 1 1zm-375 1 1 1zm251 0 1 1zm122 2 1 1zm5 0-2 11c4.307-.923 3.84-7.807 2-11z" fill="#c8b0a2"/><path d="m19 445 1 1z" fill="#f2f9f7"/><path d="m271 445 1 1zm373 0 1 1zm-372 1 1 1zm1 1 1 1zm116 0 1 1zm-115 1 1 1zm114 0 1 1zm-113 1 1 1zm112 0 1 1zm-366 1 1 1zm255 0 1 1zm110 0 1 1zm256 0 1 1zm-365 1 1 1zm108 0 1 1zm-107 1 1 1zm106 0 1 1zm-105 1 1 1zm104 0 1 1zm-103 1 1 1zm102 0 1 1zm109 0 1 1z" fill="#c8b0a2"/><path d="m23 455 1 1zm617 0 1 1z" fill="#f2f9f7"/><path d="m283 456 1 1zm-102 1 1 1zm103 0 1 1zm94 0 1 1zm111 0 1 1zm-202 2 1 1zm88 0 1 1zm-86 1 1 1zm198 0 1 1zm-196 1 1 1zm81 0 1 1z" fill="#c8b0a2"/><path d="m26 462 1 1z" fill="#f2f9f7"/><path d="m293 462 1 1zm77 0 1 1z" fill="#c8b0a2"/><path d="m637 462 1 1z" fill="#f2f9f7"/><path d="m294 463 1 1zm74 0 1 1zm-341 1 1 1zm270 0 1 1zm69 0 1 1zm-180 1 1 1zm113 0 1 1zm64.667.333.666.334zm-61.667.667 1 1zm59 0 1 1zm-56.333 1.333.666.334zm53.333-.333 1 1zm-50.333 1.333.666.334zm47 0 .666.334zm-43 1 .666.334zm39 0 .666.334zm-34.667.667v1h3zm29 0v1h3zm-22 1v1h17zm-132 1 1 1zm287 0 1 1z" fill="#c8b0a2"/><path d="m632 473 1 1zm-1 2 1 1zm-1 2 1 1zm-1 2 1 1z" fill="#f2f9f7"/><path d="m35 480 1 1zm593 1 1 1z" fill="#c8b0a2"/><path d="m627 483 1 1z" fill="#f2f9f7"/><path d="m38 485 1 1zm3 5 1 1zm1 2 1 1zm417 0 1 1zm-248 1 1 1zm247 0 1 1zm-414 2 1 1zm1 2 1 1zm408 0 1 1z" fill="#c8b0a2"/><path d="m45 498 1 1z" fill="#f2f9f7"/><path d="m217 498 1 1zm235 0 1 1zm-231 3 1 1zm227 0 1 1zm169 0 1 1z" fill="#c8b0a2"/><path d="m48 503 1 1z" fill="#f2f9f7"/><path d="m445 503 1 1zm-3 2 1 1zm172 1 1 1zm-383 1 1 1zm208 0 1 1zm-206 1 1 1zm3 1 1 1zm200 0 1 1zm-197 1 1 1zm195 0 1 1zm-193 1 1 1z" fill="#c8b0a2"/><path d="m611 511 1 1z" fill="#f2f9f7"/><path d="m244 512 1 1zm3 1 1 1zm182 0 1 1zm-180 1 1 1zm178 0 1 1zm-175 1 1 1zm173 0 1 1zm-170 1 1 1zm168 0 1 1zm-165 1 1 1zm163 0 1 1z" fill="#c8b0a2"/><path d="m58 518 1 1z" fill="#f2f9f7"/><path d="m261 518 1 1zm158 0 1 1zm-155 1 1 1zm152 0 1 1zm-149 1 1 1zm147 0 1 1zm-144 1 1 1zm142 0 1 1zm-139 1 1 1zm136 0 1 1zm-133 1 1 1zm130 0 1 1zm-126 1 1 1zm124 0 1 1zm-121 1 1 1zm117.667.333.666.334zm-113.667.667 1 1zm110.667.333.666.334zm203.333-.333 1 1zm-310.333 1.333.666.334zm103.333-.333 1 1zm-99.333 1.333.666.334zm96 0 .666.334zm-92 1 .666.334zm88 0 .666.334zm-319.667.667 1 1zm236.667.333.666.334zm78.333-.333 1 1zm-73.333 1.333.666.334zm69 0 .666.334zm-63 1 .666.334zm56.333-.333 1 1zm-50 1v1h3zm41.667.333.666.334zm233.333-.333 1 1zm-265 1v1h8zm13 0v1h5z" fill="#c8b0a2"/><path d="m593 537 1 1z" fill="#f2f9f7"/><path d="m75 540 1 1zm511 6 1 1z" fill="#c8b0a2"/><path d="m81 547 1 1z" fill="#f2f9f7"/><path d="m581 552 1 1zm-7 8 1 1zm-464 16 1 1z" fill="#c8b0a2"/><path d="m111 577 1 1zm7 6 1 1z" fill="#f2f9f7"/><path d="m547 587 1 1zm-423 1 1 1zm416 5 1 1z" fill="#c8b0a2"/><path d="m133 595 1 1z" fill="#f2f9f7"/><path d="m147 605 1 1zm3 2 1 1zm372 0 1 1zm-369 2 1 1z" fill="#c8b0a2"/><path d="m518 610 1 1z" fill="#f2f9f7"/><path d="m515 612 1 1zm-354 2 1 1zm351 0 1 1zm-3 2 1 1z" fill="#c8b0a2"/><path d="m506 618 1 1zm-335 2 1 1z" fill="#f2f9f7"/><path d="m501 621 1 1z" fill="#c8b0a2"/><path d="m180 625 1 1zm2 1 1 1z" fill="#f2f9f7"/><path d="m184 627 1 1zm2 1 1 1zm303 0 1 1zm-297 3 1 1z" fill="#c8b0a2"/><path d="m194 632 1 1zm11 5 1 1z" fill="#f2f9f7"/><path d="m467 639 1 1z" fill="#c8b0a2"/><path d="m212 640 1 1z" fill="#f2f9f7"/><path d="m217 642 1 1zm243 0 1 1zm-235 3 1 1zm3 1 1 1zm222 0 1 1z" fill="#c8b0a2"/><path d="m442 649 1 1z" fill="#f2f9f7"/><path d="m240 650 1 1z" fill="#c8b0a2"/><path d="m439 650 1 1zm-196 1 1 1z" fill="#f2f9f7"/><path d="m436 651 1 1z" fill="#c8b0a2"/><path d="m246 652 1 1z" fill="#f2f9f7"/><path d="m250 653 1 1z" fill="#c8b0a2"/><path d="m426 654 1 1z" fill="#f2f9f7"/><path d="m257 655 1 1zm4 1 1 1z" fill="#c8b0a2"/><path d="m265 657 1 1zm5 1 1 1z" fill="#f2f9f7"/><path d="m410 658 1 1z" fill="#c8b0a2"/><path d="m406 659 1 1zm-126 1 1 1zm121 0 1 1z" fill="#f2f9f7"/><path d="m285 661 1 1zm110 0 1 1zm-103 1 1 1zm97 0 1 1z" fill="#c8b0a2"/><path d="m299 663 1 1z" fill="#f2f9f7"/><path d="m382 663 1 1zm-74 1 1 1zm65 0 1 1z" fill="#c8b0a2"/><path d="m320 665 1 1z" fill="#f2f9f7"/><path d="m321 665 1 1zm40.667.333.666.334z" fill="#c8b0a2"/></svg>