<?xml version="1.0" standalone="no"?>
<!DOCTYPE svg PUBLIC "-//W3C//DTD SVG 20010904//EN"
 "http://www.w3.org/TR/2001/REC-SVG-20010904/DTD/svg10.dtd">
<svg version="1.0" xmlns="http://www.w3.org/2000/svg"
 width="1000.000000pt" height="1000.000000pt" viewBox="0 0 1000.000000 1000.000000"
 preserveAspectRatio="xMidYMid meet">
<metadata>
Created by potrace 1.14, written by Peter Selinger 2001-2017
</metadata>
<g transform="translate(0.000000,1000.000000) scale(0.100000,-0.100000)"
fill="#000000" stroke="none">
<path d="M5270 9963 c-1090 -38 -2151 -391 -3070 -1021 -1265 -867 -2028
-2143 -2185 -3654 -20 -196 -20 -645 0 -828 157 -1413 990 -2728 2256 -3563
742 -489 1577 -781 2447 -858 207 -18 778 -6 967 20 319 44 567 99 836 186
1002 326 1878 1003 2506 1936 550 817 878 1758 963 2754 13 154 13 548 0 690
-15 161 -47 377 -85 570 -54 270 -185 820 -197 824 -37 13 -93 83 -133 165
-42 87 -112 293 -103 302 3 2 42 -78 88 -178 45 -101 87 -187 91 -192 18 -20
8 61 -14 114 -36 87 -236 462 -324 607 -513 842 -1297 1475 -2278 1836 -544
200 -1210 310 -1765 290z m235 -1624 c536 -52 1051 -243 1446 -535 129 -95
323 -290 408 -409 148 -210 278 -543 365 -935 146 -664 180 -1244 105 -1830
-84 -662 -321 -1259 -676 -1700 -397 -495 -995 -823 -1663 -912 -125 -17 -525
-16 -665 1 -273 33 -578 103 -877 202 -328 110 -519 197 -701 321 -100 69
-267 224 -350 325 -288 353 -510 931 -607 1578 -40 265 -53 480 -47 800 9 491
63 851 194 1290 305 1018 888 1519 2019 1734 445 85 714 103 1049 70z"/>
<path d="M5016 7251 c-4 -5 2 -12 11 -14 10 -3 2 -5 -18 -6 -62 -2 -259 -56
-364 -100 -382 -159 -693 -482 -850 -880 -38 -96 -104 -341 -106 -389 0 -24
-1 -25 -9 -7 -7 15 -9 9 -8 -25 3 -85 -1 -126 -12 -110 -7 11 -10 -4 -9 -50 1
-36 -4 -128 -11 -205 -18 -195 -24 -736 -10 -920 29 -378 101 -678 220 -915
136 -270 300 -446 525 -562 88 -45 266 -108 305 -108 10 0 22 -5 25 -10 3 -5
31 -10 61 -10 31 0 54 -4 54 -11 0 -23 324 4 445 38 315 90 526 252 645 498
46 94 85 213 74 224 -2 3 -66 8 -142 13 -307 18 -470 51 -627 128 -212 103
-340 258 -433 520 -58 167 -120 489 -129 675 -6 134 4 200 42 283 31 67 123
164 181 191 123 58 255 -14 364 -198 72 -121 140 -320 156 -453 l6 -58 432 1
c444 0 514 4 508 30 -8 30 -1 353 7 358 4 4 7 188 6 411 -2 434 -8 505 -59
710 -119 468 -430 797 -864 911 -93 25 -124 28 -272 32 -64 2 -121 6 -127 10
-6 4 -14 3 -17 -2z"/>
<path d="M5907 3330 c-12 -35 -28 -142 -22 -148 15 -15 45 41 44 82 -1 49 -14
89 -22 66z"/>
</g>
</svg>
